<?xml version="1.0" encoding="utf-8"?>
<!-- Generator: Adobe Illustrator 24.0.1, SVG Export Plug-In . SVG Version: 6.00 Build 0)  -->
<svg version="1.1" xmlns="http://www.w3.org/2000/svg" xmlns:xlink="http://www.w3.org/1999/xlink" x="0px" y="0px"
	 viewBox="0 0 1296 288.35999" style="enable-background:new 0 0 1296 288.35999;" xml:space="preserve">
<g id="Layer_1">
</g>
<g id="Layer_2">
</g>
<g id="Layer_3">
	<g>
		<g>
			<g>
				<path d="M240.85425,193.98109H64.9519V66.01431h175.90234V193.98109z M72.2019,186.73109h161.40234V73.26431H72.2019V186.73109z
					"/>
			</g>
		</g>
		<g>
			<g>
				<rect x="68.5769" y="93.60122" width="168.65234" height="7.25"/>
			</g>
		</g>
		<g>
			<g>
				<polygon points="89.64771,167.94984 84.28931,163.06703 105.76245,139.50551 121.02612,156.40004 152.90649,121.48794 
					174.90942,145.6432 197.27319,121.00698 202.64136,125.88003 174.91821,156.41859 152.89966,132.24672 120.9978,167.18324 
					105.73901,150.29457 				"/>
			</g>
		</g>
		<g>
			<path d="M87.49006,87.3783h-4.43479c-2.08907,0-3.78261-1.69353-3.78261-3.7826V83.5957
				c0-2.08908,1.69353-3.78261,3.78261-3.78261h4.43479c2.08907,0,3.7826,1.69353,3.7826,3.78261v0.00001
				C91.27266,85.68478,89.57913,87.3783,87.49006,87.3783z"/>
		</g>
		<g>
			<path d="M103.59875,87.3783h-4.43479c-2.08907,0-3.78261-1.69353-3.78261-3.7826V83.5957
				c0-2.08908,1.69353-3.78261,3.78261-3.78261h4.43479c2.08907,0,3.7826,1.69353,3.7826,3.78261v0.00001
				C107.38136,85.68478,105.68783,87.3783,103.59875,87.3783z"/>
		</g>
		<g>
			<path d="M119.57701,87.3783h-4.43478c-2.08908,0-3.78261-1.69353-3.78261-3.7826V83.5957
				c0-2.08908,1.69353-3.78261,3.78261-3.78261h4.43478c2.08908,0,3.78261,1.69353,3.78261,3.78261v0.00001
				C123.35962,85.68478,121.66609,87.3783,119.57701,87.3783z"/>
		</g>
		<g>
			<polygon points="222.94658,216.57396 237.91397,198.37831 254.83788,222.3457 267.94656,212.95439 251.21831,188.79135 
				273.13135,180.47614 207.19658,140.66092 			"/>
		</g>
		<g>
			<path d="M367.5061,80.15249l-7.15771,14.38232c-3.87988-3.87988-10.12402-5.81982-18.73047-5.81982
				c-8.16113,0-14.85059,3.42334-20.06836,10.26807c-5.21777,6.84668-7.82666,15.50977-7.82666,25.98926
				c0,10.48046,2.41846,18.79687,7.25781,24.95116c4.83838,6.1543,11.29395,9.23145,19.36621,9.23145
				c9.23145,0,16.45605-3.2998,21.67383-9.90039l8.09424,14.04785c-7.09082,7.53711-17.48242,11.30469-31.17285,11.30469
				c-13.69141,0-24.32764-4.50293-31.90869-13.51172c-7.58203-9.00781-11.37207-21.29492-11.37207-36.85937
				c0-14.49316,4.20264-26.6123,12.60938-36.35742c8.40576-9.74316,19.16553-14.61621,32.27686-14.61621
				C351.78589,73.26235,360.77173,75.55972,367.5061,80.15249z"/>
			<path d="M429.51733,172.9352v-44.15039c0-4.41503-1.38281-7.96093-4.14746-10.63671
				c-2.76563-2.67578-6.37793-4.01367-10.83691-4.01367c-2.76563,0-5.55225,0.74805-8.36182,2.24121
				c-2.80957,1.49512-4.81641,3.20117-6.02051,5.11816v51.4414h-16.99121V74.60024l16.99121-4.01367v35.25293
				c4.3252-3.92383,10.27881-5.88623,17.86084-5.88623c8.96387,0,15.9209,2.48682,20.87109,7.4585
				c4.9502,4.97363,7.42529,12.09766,7.42529,21.37304v44.15039H429.51733z"/>
			<path d="M504.23853,165.77699c-1.5166,2.49902-4.15918,4.53906-7.92725,6.12109c-3.76904,1.58301-7.7041,2.375-11.80664,2.375
				c-7.71582,0-13.78027-1.92871-18.19531-5.78613s-6.62256-9.33203-6.62256-16.42285c0-8.29492,3.11084-14.7832,9.33154-19.4668
				c6.22168-4.68163,15.06201-7.02343,26.52393-7.02343c1.96191,0,4.28125,0.33398,6.95703,1.00391
				c0-8.42969-5.32959-12.64355-15.98779-12.64355c-6.28809,0-11.55078,1.04883-15.78711,3.14355l-3.6123-12.97656
				c5.75293-2.76563,12.59814-4.14795,20.53662-4.14795c10.92578,0,18.93115,2.48682,24.01514,7.4585
				c5.08398,4.97363,7.62598,14.39453,7.62598,28.26366v15.31836c0,9.54395,1.91699,15.54297,5.75293,17.99414
				c-1.38281,2.4082-2.92139,3.8916-4.61572,4.44922c-1.69531,0.55664-3.63525,0.83594-5.81982,0.83594
				c-2.4082,0-4.57178-0.89258-6.48877-2.67578C506.20044,169.8141,504.90747,167.87465,504.23853,165.77699z M502.63306,139.22035
				c-2.85449-0.5791-4.99512-0.86914-6.42188-0.86914c-13.20117,0-19.80078,4.32617-19.80078,12.97656
				c0,6.42188,3.72314,9.63281,11.17139,9.63281c10.03418,0,15.05127-5.0166,15.05127-15.05078V139.22035z"/>
			<path d="M578.75903,116.87759c-2.98828-1.96191-6.26611-2.94336-9.8335-2.94336c-3.87988,0-7.32471,1.7627-10.33545,5.28418
				c-3.00977,3.52441-4.51514,7.82715-4.51514,12.91113v40.80566h-16.72363v-71.64452h16.72363v6.55664
				c4.68262-5.26172,10.90381-7.89404,18.66357-7.89404c5.70801,0,10.07813,0.86963,13.11133,2.60889L578.75903,116.87759z"/>
			<path d="M598.42603,114.73696h-8.29492v-13.44629h8.29492V86.70815l16.72363-6.1543v20.73682h19.66602v13.44629h-19.66602
				v31.37402c0,5.12891,0.80273,8.75195,2.4082,10.87012s4.41406,3.17676,8.42773,3.17676s7.75977-1.0918,11.23828-3.27734v15.38574
				c-3.87891,1.33789-9.41016,2.00684-16.58984,2.00684c-7.13477,0-12.62012-2.01758-16.45508-6.05371
				c-3.83594-4.03613-5.75293-9.77734-5.75293-17.22559V114.73696z"/>
			<path d="M645.78638,168.31996l5.9541-13.3125c4.99414,3.96973,10.63574,5.95313,16.9248,5.95313
				c6.50977,0,9.76563-2.31738,9.76563-6.95703c0-2.71875-0.98145-4.94922-2.94336-6.68945
				c-1.96289-1.73828-5.77539-3.78906-11.43848-6.1543c-12.35352-5.12695-18.53027-12.30859-18.53027-21.53905
				c0-6.19824,2.36328-11.02637,7.0918-14.4834c4.72559-3.45508,10.76953-5.18408,18.12793-5.18408
				c7.44727,0,14.44922,1.67236,21.00488,5.01709L686.927,117.9479c-3.65723-3.12109-8.74121-4.68262-15.25195-4.68262
				c-5.84277,0-8.76367,2.31934-8.76367,6.95703c0,1.8291,0.95898,3.47852,2.87695,4.9502
				c1.91699,1.47168,6.02051,3.4453,12.30859,5.91991c6.28809,2.47559,10.81348,5.47559,13.58008,8.99707
				c2.76367,3.52441,4.14648,7.7832,4.14648,12.77734c0,6.64551-2.46387,11.87402-7.3916,15.68652
				c-4.92773,3.81348-11.62891,5.71973-20.10156,5.71973c-4.77246,0-8.5957-0.39063-11.47266-1.1709
				C653.98169,172.32289,650.29028,170.72816,645.78638,168.31996z"/>
			<path d="M789.21021,174.27309h-7.1582l-21.40625-61.81054l-20.80469,61.81054h-7.15723l-32.17676-99.33837h18.12891
				l18.39648,59.13525l19.86719-59.13525h7.62598l19.93457,59.13525l18.3291-59.13525h18.12793L789.21021,174.27309z"/>
			<path d="M865.06763,165.77699c-1.51758,2.49902-4.15918,4.53906-7.92773,6.12109c-3.76855,1.58301-7.7041,2.375-11.80664,2.375
				c-7.71582,0-13.78027-1.92871-18.19531-5.78613s-6.62305-9.33203-6.62305-16.42285c0-8.29492,3.11133-14.7832,9.33203-19.4668
				c6.22168-4.68163,15.06152-7.02343,26.52344-7.02343c1.96191,0,4.28125,0.33398,6.95703,1.00391
				c0-8.42969-5.3291-12.64355-15.9873-12.64355c-6.28809,0-11.55078,1.04883-15.78711,3.14355l-3.6123-12.97656
				c5.75293-2.76563,12.59766-4.14795,20.53711-4.14795c10.9248,0,18.93066,2.48682,24.01465,7.4585
				c5.08398,4.97363,7.62598,14.39453,7.62598,28.26366v15.31836c0,9.54395,1.91699,15.54297,5.75293,17.99414
				c-1.38281,2.4082-2.92188,3.8916-4.61621,4.44922c-1.69531,0.55664-3.63477,0.83594-5.81934,0.83594
				c-2.4082,0-4.57227-0.89258-6.48926-2.67578C867.02856,169.8141,865.7356,167.87465,865.06763,165.77699z M863.46216,139.22035
				c-2.85547-0.5791-4.99609-0.86914-6.42188-0.86914c-13.20215,0-19.80078,4.32617-19.80078,12.97656
				c0,6.42188,3.72266,9.63281,11.1709,9.63281c10.03418,0,15.05176-5.0166,15.05176-15.05078V139.22035z"/>
			<path d="M900.72192,114.73696H892.427v-13.44629h8.29492V86.70815l16.72461-6.1543v20.73682h19.66602v13.44629h-19.66602
				v31.37402c0,5.12891,0.80273,8.75195,2.4082,10.87012s4.41406,3.17676,8.42773,3.17676s7.75977-1.0918,11.23828-3.27734v15.38574
				c-3.87891,1.33789-9.41016,2.00684-16.58984,2.00684c-7.13574,0-12.62109-2.01758-16.45508-6.05371
				c-3.83691-4.03613-5.75391-9.77734-5.75391-17.22559V114.73696z"/>
			<path d="M1008.69067,106.9772l-7.1582,12.50879c-3.9248-3.7002-9.1875-5.55176-15.78711-5.55176
				c-6.33301,0-11.33887,2.10742-15.01758,6.32129c-3.67969,4.21484-5.51953,10.04589-5.51953,17.49316
				c0,15.0293,7.1582,22.54395,21.47363,22.54395c6.19824,0,11.66113-2.05078,16.38965-6.1543l6.1543,13.17773
				c-4.8623,3.0332-9.10938,4.9502-12.74414,5.75293s-7.92676,1.2041-12.87695,1.2041
				c-11.06055,0-19.79004-3.22168-26.18945-9.66602s-9.59961-15.39648-9.59961-26.8584
				c0-11.28222,3.50098-20.40331,10.50293-27.36034c7.00098-6.95703,16.54492-10.43506,28.63086-10.43506
				C995.28833,99.95327,1002.53638,102.29458,1008.69067,106.9772z"/>
			<path d="M1068.96216,172.9352v-44.15039c0-4.41503-1.38281-7.96093-4.14746-10.63671
				c-2.76563-2.67578-6.37793-4.01367-10.83691-4.01367c-2.76563,0-5.55273,0.74805-8.36133,2.24121
				c-2.81055,1.49512-4.81641,3.20117-6.02148,5.11816v51.4414h-16.99023V74.60024l16.99023-4.01367v35.25293
				c4.3252-3.92383,10.2793-5.88623,17.86133-5.88623c8.96387,0,15.9209,2.48682,20.87109,7.4585
				c4.9502,4.97363,7.42578,12.09766,7.42578,21.37304v44.15039H1068.96216z"/>
			<path d="M1167.76587,142.23012h-51.1748c0.31152,5.70996,2.27441,10.14648,5.88672,13.3125
				c3.6123,3.16699,8.47266,4.75,14.58301,4.75c7.62598,0,13.42285-1.98438,17.39258-5.9541l6.48828,12.77637
				c-5.88672,4.77344-14.67285,7.1582-26.35547,7.1582c-10.92773,0-19.56738-3.19922-25.92188-9.59961
				c-6.35547-6.39844-9.5332-15.3291-9.5332-26.79102c0-11.28222,3.48926-20.4248,10.46973-27.42675
				c6.97852-7.00098,15.35254-10.50244,25.11816-10.50244c10.39063,0,18.73047,3.1001,25.01953,9.29834
				c6.28711,6.19922,9.43164,14.09277,9.43164,23.68066C1169.17017,134.98402,1168.70142,138.08363,1167.76587,142.23012z
				 M1117.1936,129.65395h35.18555c-1.16016-10.47851-6.95703-15.71972-17.39258-15.71972
				C1125.44263,113.93423,1119.51099,119.17544,1117.1936,129.65395z"/>
			<path d="M1223.95728,116.87759c-2.98828-1.96191-6.2666-2.94336-9.83301-2.94336c-3.88086,0-7.3252,1.7627-10.33594,5.28418
				c-3.00977,3.52441-4.51563,7.82715-4.51563,12.91113v40.80566h-16.72266v-71.64452h16.72266v6.55664
				c4.68359-5.26172,10.9043-7.89404,18.66406-7.89404c5.70801,0,10.07813,0.86963,13.11133,2.60889L1223.95728,116.87759z"/>
		</g>
	</g>
</g>
</svg>
